<?xml version="1.0" encoding="utf-8"?>
<!-- Generator: Adobe Illustrator 23.0.1, SVG Export Plug-In . SVG Version: 6.00 Build 0)  -->
<svg version="1.1" id="Layer_1" xmlns="http://www.w3.org/2000/svg" xmlns:xlink="http://www.w3.org/1999/xlink" x="0px" y="0px"
	 viewBox="0 0 256 256" style="enable-background:new 0 0 256 256;" xml:space="preserve">
<style type="text/css">
	.st0{fill:#F6B442;}
	.st1{fill:#2188A2;}
	.st2{opacity:0.6;fill:#2188A2;}
	.st3{opacity:0.3;fill:#2188A2;}
	.st4{fill:#FFFFFF;}
	.st5{fill:#FFFFFF;stroke:#FFFFFF;stroke-width:6;stroke-miterlimit:10;}
</style>
<g>
	<path class="st1" d="M231.9,25l-1.2-4.1l-4.8-0.5c-9.1-1-17.9-12.9-20.3-17l-2-3.4H52.5l-2,3.4c-2.4,4.1-11.2,16-20.3,17L25.4,21
		L24.2,25c-54.5,184.3,100.2,230,101.8,230.4l2.1,0.5l2.1-0.5C131.7,255,286,207.9,231.9,25z"/>
	<g>
		<path class="st0" d="M128,239.3c-10.9-3.8-56.9-22.2-82.2-68.6C25.9,134,23.2,88.4,38,35c11-3.7,19.2-13.2,23.4-19h133.4
			c4.2,5.8,12.4,15.3,23.3,19c10.1,36.5,12,69.7,5.6,98.6c-5.3,23.8-16.2,45-32.5,63.1C166.5,224,136.6,236.2,128,239.3z"/>
		<path class="st4" d="M128.1,241.4l-0.7-0.2c-13.1-4.6-58-23.2-83.3-69.5c-20.2-37.1-22.9-83.3-8-137.2l0.3-1l1-0.3
			c10.6-3.5,18.5-12.9,22.4-18.2l0.6-0.8h135.4l0.6,0.8c3.8,5.3,11.8,14.7,22.3,18.2l1,0.3l0.3,1c10.2,36.8,12.1,70.3,5.6,99.6
			c-5.3,24.2-16.4,45.7-32.9,64c-25,27.7-55.3,40.1-64,43.2L128.1,241.4z M39.7,36.5C25.3,89,28,133.8,47.6,169.7
			c24.7,45.2,69.9,63.7,80.4,67.4c9.3-3.4,37.9-15.5,61.7-41.9c16-17.8,26.8-38.7,32-62.2c6.3-28.3,4.5-60.8-5.3-96.6
			c-10.6-3.9-18.5-12.9-22.7-18.5H62.4C58.2,23.6,50.2,32.6,39.7,36.5z"/>
	</g>
	<g>
		<path class="st1" d="M83.4,86.5c4.6-14,9.1-27.8,13.8-41.9c6.2,2.1,12.1,4.2,18,6c1.8,0.5,3.9,0.7,5.8,0.4c12.5-1.9,25-4,37.5-5.9
			c0.9-0.1,2.8,0.5,3,1.2c4.5,13.3,8.9,26.6,13.3,40.3C144.3,86.5,114.1,86.5,83.4,86.5z"/>
		<path class="st1" d="M122.1,147.8c-0.5,3.3-0.7,6.4-1.5,9.3c-3.1,11-14.2,18.5-25.1,17.1C83,172.7,73.9,163,73.7,151
			c-0.2-11.9,8-22,19.6-24.1c10.6-1.9,20.6,2.7,25.8,12.3c1,1.9,2.1,2.2,4.1,2.1c5-0.2,10-0.1,15.5-0.1c-0.2,0.3,0.1-0.1,0.3-0.5
			c5.4-11.5,16.4-17.1,27.9-14.2c11.2,2.8,18.9,14.1,18,26.2c-0.9,12.9-11.5,22.5-24.4,22.3c-12.6-0.2-22.9-10.4-23.2-23.2
			c-0.1-2.1-0.7-3.2-2.8-3.7C129.7,146.8,125.7,146.6,122.1,147.8z M115.6,150.3c0-10.1-7.8-17.9-17.9-17.8c-9.7,0-18,8.5-18,18.1
			c0.1,9.9,8.1,17.9,18.1,17.8C107.8,168.2,115.6,160.3,115.6,150.3z M179,150.4c0-9.6-8.2-17.9-17.8-17.9
			c-9.6-0.1-18.1,8.4-18.1,18c0,9.7,8,17.7,17.8,17.8C170.7,168.4,179,160.1,179,150.4z"/>
		<path class="st1" d="M56.8,118.3c41.1-22.7,100.9-23.2,142.1,0C151.5,118.3,104.4,118.3,56.8,118.3z"/>
	</g>
</g>
</svg>
