<?xml version="1.0" encoding="utf-8"?>
<!-- Generator: Adobe Illustrator 23.0.1, SVG Export Plug-In . SVG Version: 6.00 Build 0)  -->
<svg version="1.1" id="Layer_1" xmlns="http://www.w3.org/2000/svg" xmlns:xlink="http://www.w3.org/1999/xlink" x="0px" y="0px"
	 viewBox="0 0 256 256" style="enable-background:new 0 0 256 256;" xml:space="preserve">
<style type="text/css">
	.st0{fill:#F6B442;}
	.st1{fill:#2188A2;}
	.st2{opacity:0.6;fill:#2188A2;}
	.st3{opacity:0.3;fill:#2188A2;}
	.st4{fill:#FFFFFF;}
	.st5{fill:#FFFFFF;stroke:#FFFFFF;stroke-width:6;stroke-miterlimit:10;}
</style>
<g>
	<g>
		<path class="st0" d="M242.3,68.6h-128c-2.5,0-4.6-2-4.6-4.6V27.4c0-7.6-6.1-13.7-13.7-13.7H13.7C6.1,13.7,0,19.9,0,27.4v201.1
			c0,7.6,6.1,13.7,13.7,13.7h228.6c7.6,0,13.7-6.1,13.7-13.7V82.3C256,74.7,249.9,68.6,242.3,68.6z"/>
		<path class="st1" d="M96,26.4c0.6,0,1,0.5,1,1V64c0,9.5,7.7,17.3,17.3,17.3h128c0.6,0,1,0.5,1,1v146.3c0,0.6-0.5,1-1,1H13.7
			c-0.6,0-1-0.5-1-1V27.4c0-0.6,0.5-1,1-1H96 M96,13.7H13.7C6.1,13.7,0,19.9,0,27.4v201.1c0,7.6,6.1,13.7,13.7,13.7h228.6
			c7.6,0,13.7-6.1,13.7-13.7V82.3c0-7.6-6.1-13.7-13.7-13.7h-128c-2.5,0-4.6-2-4.6-4.6V27.4C109.7,19.9,103.6,13.7,96,13.7L96,13.7z
			"/>
	</g>
	<path class="st1" d="M242.3,41.1H118.9v18.3h123.4c4.9,0,9.8,1.6,13.7,4.6v-9.2C256,47.3,249.9,41.2,242.3,41.1z"/>
	<g>
		<path class="st4" d="M128,146.3c-18.8,0-34.5,16.1-36.5,36.8c15.4,20.1,44.2,24,64.3,8.6c3.2-2.5,6.1-5.4,8.6-8.6
			C162.5,162.3,146.8,146.3,128,146.3L128,146.3z"/>
		<path class="st4" d="M128.1,204.1c-2.2,0-4.4-0.1-6.6-0.4c-12.9-1.7-24.4-8.4-32.3-18.7l-0.7-0.9l0.1-1.1
			c2.1-22.5,19-39.5,39.4-39.5s37.3,17,39.4,39.5l0.1,1.1l-0.7,0.9c-2.6,3.4-5.7,6.5-9.1,9.1C149,200.6,138.7,204.1,128.1,204.1z
			 M94.6,182.2c14.5,18,41,21.3,59.5,7.1c2.7-2.1,5.2-4.5,7.3-7.1c-2.3-18.9-16.4-33-33.4-33S96.8,163.3,94.6,182.2z"/>
	</g>
	<g>
		<circle class="st4" cx="128.1" cy="123.4" r="13.7"/>
		<path class="st4" d="M128.1,140.1c-9.2,0-16.6-7.5-16.6-16.6s7.5-16.6,16.6-16.6s16.6,7.5,16.6,16.6S137.3,140.1,128.1,140.1z
			 M128.1,112.6c-5.9,0-10.8,4.8-10.8,10.8c0,5.9,4.8,10.8,10.8,10.8c5.9,0,10.8-4.8,10.8-10.8C138.9,117.5,134,112.6,128.1,112.6z"
			/>
	</g>
</g>
</svg>
