<?xml version="1.0" encoding="utf-8"?>
<!-- Generator: Adobe Illustrator 23.0.1, SVG Export Plug-In . SVG Version: 6.00 Build 0)  -->
<svg version="1.1" id="Layer_1" xmlns="http://www.w3.org/2000/svg" xmlns:xlink="http://www.w3.org/1999/xlink" x="0px" y="0px"
	 viewBox="0 0 256 256" style="enable-background:new 0 0 256 256;" xml:space="preserve">
<style type="text/css">
	.st0{fill:#F6B442;}
	.st1{fill:#2188A2;}
	.st2{opacity:0.6;fill:#2188A2;}
	.st3{opacity:0.3;fill:#2188A2;}
	.st4{fill:#FFFFFF;}
	.st5{fill:#FFFFFF;stroke:#FFFFFF;stroke-width:6;stroke-miterlimit:10;}
</style>
<g>
	<g>
		<circle class="st0" cx="128.4" cy="128" r="100.2"/>
		<path class="st1" d="M128.4,27.8c55.3,0,100.2,44.9,100.2,100.2s-44.9,100.2-100.2,100.2S28.2,183.3,28.2,128
			S73.1,27.8,128.4,27.8 M128.4,13.9c-30.5,0-59.1,11.9-80.7,33.4C26.2,68.9,14.3,97.5,14.3,128s11.9,59.1,33.4,80.7
			c21.5,21.5,50.2,33.4,80.7,33.4s59.1-11.9,80.7-33.4c21.5-21.5,33.4-50.2,33.4-80.7s-11.9-59.1-33.4-80.7
			C187.5,25.8,158.9,13.9,128.4,13.9L128.4,13.9z"/>
	</g>
	<path class="st1" d="M128.4,202.9c-41.3,0-74.9-33.6-74.9-74.9s33.6-74.9,74.9-74.9s74.9,33.6,74.9,74.9S169.7,202.9,128.4,202.9z
		 M128.4,57.6C89.6,57.6,58,89.2,58,128s31.6,70.4,70.4,70.4s70.4-31.6,70.4-70.4S167.2,57.6,128.4,57.6z"/>
	<path class="st1" d="M128.4,176.4c-26.7,0-48.4-21.7-48.4-48.4s21.7-48.4,48.4-48.4s48.4,21.7,48.4,48.4S155.1,176.4,128.4,176.4z
		 M128.4,82.5c-25.1,0-45.5,20.4-45.5,45.5s20.4,45.5,45.5,45.5s45.5-20.4,45.5-45.5S153.5,82.5,128.4,82.5z"/>
	<polygon class="st1" points="129,127.4 203.3,38.8 221.4,57.7 	"/>
	<g>
		<path class="st1" d="M128.4,256c-0.7,0-1.2-0.5-1.2-1.2V1.2c0-0.7,0.5-1.2,1.2-1.2c0.7,0,1.2,0.5,1.2,1.2v253.5
			C129.6,255.5,129.1,256,128.4,256z"/>
	</g>
	<g>
		<rect x="1.2" y="126.8" class="st1" width="253.5" height="2.5"/>
	</g>
	<polygon class="st2" points="129,127.4 220,55.9 233.7,78.2 	"/>
	<polygon class="st3" points="129,127.4 233.3,77.3 241.9,102.1 	"/>
</g>
</svg>
