<?xml version="1.0" encoding="utf-8"?>
<!-- Generator: Adobe Illustrator 23.0.1, SVG Export Plug-In . SVG Version: 6.00 Build 0)  -->
<svg version="1.1" id="Layer_1" xmlns="http://www.w3.org/2000/svg" xmlns:xlink="http://www.w3.org/1999/xlink" x="0px" y="0px"
	 viewBox="0 0 127.6 73.6" style="enable-background:new 0 0 127.6 73.6;" xml:space="preserve">
<style type="text/css">
	.st0{fill:#FFFFFF;}
	.st1{fill:#00918C;}
	.st2{fill:#D58431;}
</style>
<g>
	<ellipse class="st0" cx="63.8" cy="36.8" rx="63.8" ry="36.8"/>
	<g>
		<path class="st1" d="M121.9,26.5C110.2,12.3,88.7,2.8,64.1,2.8C39.5,2.8,18,12.3,6.3,26.5h45.6C59,18.4,72,13,86.9,13
			C101.8,13,114.8,18.4,121.9,26.5z"/>
		<path class="st2" d="M6.2,47.1C17.9,61.3,39.4,70.8,64,70.8c24.6,0,46.1-9.5,57.8-23.7H76.2c-7.1,8.1-20.1,13.5-35,13.5
			C26.3,60.6,13.3,55.2,6.2,47.1z"/>
		<path class="st1" d="M28.1,32.9h-4.8c-1.2,0-2.4,0.4-2.9,1.2c-0.5,0.8-3.7,5.3-3.7,5.3s-3.3-4.8-3.7-5.3c-0.4-0.6-1.9-1.2-3.6-1.2
			c-1.7,0-3.8,0-3.8,0s6.3,7.5,6.6,7.9s2,1.2,4.3,1.2s3.8-0.4,4.5-1.2c0.6-0.8,4.1-5,4.1-5s0,4.4,0,5c0,0.6,1,1.2,2.9,1.2
			c2,0,3.3-0.6,3.3-1.2v-6.7C31.4,33.5,30.2,32.9,28.1,32.9z M113.5,39.8c-1.2,0-1.9-0.4-1.9-1.5c0-1.1,0-4.1,0-4.1
			c0-0.6-1.2-1.2-3.1-1.2c-2,0-3.1,0.1-3.1,1.2s0,5.8,0,5.8s-9.2,0-10.3,0c-1.1,0-1.5-0.1-1.5-1c0-0.8,0-0.8,0-0.8s6.5,0,7.7,0
			c1.1,0,2.1,0.1,2.1-0.9s0-0.9,0-0.9s-7.2,0-8.2,0c-1.1,0-1.5-0.1-1.5-0.8c0-0.6,0-0.6,0-0.6s7.2,0,8.3,0s2.2-0.3,2.2-0.8
			c0-0.4,0-1.2,0-1.2s-10.7,0-23.6,0c-0.9,0-0.9-0.9-0.9-0.9v-0.2c0-0.6-1.1-1.2-2.9-1.2c-1.8,0-3.3,0.5-3.3,1.2v0.2l0,0
			c0,0,0,0.9-0.9,0.9h-7.5C64,32.9,64,32,64,32l0,0v-0.2c0-0.6-1.1-1.2-2.9-1.2s-3.3,0.5-3.3,1.2V32c0,0,0,0.9-0.9,0.9H34.7
			c-1.1,0-1.7,0.4-1.7,1.2c0,0.6,0,6.7,0,6.7c0,0.6,0.7,1.2,2.5,1.2h12.3c1,0,2.2-0.6,2.2-1.2c0-0.6,0-0.9,0-0.9s-8.5,0-9.3,0
			s-1.4-0.2-1.4-1c0-0.8,0-0.8,0-0.8s6.7,0,7.6,0c0.9,0,2.1,0,2.1-0.9s0-0.9,0-0.9s-7.4,0-8.2,0s-1.5-0.1-1.5-0.6c0-0.5,0-0.5,0-0.5
			s14,0,15.5,0c1.6,0,2.9,0.5,2.9,2.1v3.6c0,0.6,1.5,1.2,3.2,1.2c1.7,0,3-0.6,3-1.2v-3.6c0-0.9,0.8-2.1,2.5-2.1h4.3
			c1.4,0,2.5,0.6,2.5,2v3.7c0,0.6,1.1,1.2,2.9,1.2c1.8,0,3.3-0.5,3.3-1.2v-3.7c0-0.9,1.2-2,2.2-2H85c1.1,0,2.3,0.7,2.3,2.1v3.6
			c0,0.6,0.5,1.2,1.9,1.2h29.6c1.4,0,2.5-0.5,2.5-1.2c0-0.6,0-1.1,0-1.1S114.7,39.8,113.5,39.8z"/>
	</g>
</g>
</svg>
